<?xml version="1.0" encoding="UTF-8" standalone="no"?>
<svg
   xmlns:dc="http://purl.org/dc/elements/1.1/"
   xmlns:cc="http://creativecommons.org/ns#"
   xmlns:rdf="http://www.w3.org/1999/02/22-rdf-syntax-ns#"
   xmlns:svg="http://www.w3.org/2000/svg"
   xmlns="http://www.w3.org/2000/svg"
   version="1.1"
   id="svg2"
   xml:space="preserve"
   width="583.80005"
   height="583.79999"
   viewBox="0 0 583.80005 583.79999"
   style="enable-background:new"><metadata
     id="metadata8"><rdf:RDF><cc:Work
         rdf:about=""><dc:format>image/svg+xml</dc:format><dc:type
           rdf:resource="http://purl.org/dc/dcmitype/StillImage" /><dc:title></dc:title></cc:Work></rdf:RDF></metadata><defs
     id="defs6" /><g
     id="layer1"
     transform="translate(1.4901161e-7,4.6879053e-5)"><rect
       style="fill:#2d2d2d;fill-opacity:1;stroke:#ffffa2;stroke-width:0.72653419;stroke-opacity:1"
       id="rect4522"
       width="583.07349"
       height="583.07343"
       x="0.36326694"
       y="0.36322021" /></g><g
     id="g10"
     transform="matrix(1.3333333,0,0,-1.3333333,1.4901161e-7,583.80005)"><g
       id="g12"
       transform="matrix(0.1,0,0,0.1,9,-16.5)"><path
         d="m 2098.11,4378.46 152.61,-262.87 -734.25,-1264.63 h 1381.57 l -157.97,-270.2 H 1367.58 L 2054.18,1407.59 1900,1143.87 1207.66,2305.03 490.785,1069.8 H 198.52 l 1899.59,3308.66"
         style="fill:#2ba543;fill-opacity:1;fill-rule:nonzero;stroke:none"
         id="path14" /><path
         d="M 2992.85,2837.3 3137.71,2586.27 2244.37,1047.74 H 1946.59 L 2992.85,2837.3"
         style="fill:#bf1b2c;fill-opacity:1;fill-rule:nonzero;stroke:none"
         id="path16" /><path
         d="M 143.375,992.602 H 4063.8 L 4185.45,783.051 0,755.48 143.375,992.602"
         style="fill:#bdbcbc;fill-opacity:1;fill-rule:nonzero;stroke:none"
         id="path18" /><g
         id="g20"
         transform="scale(10)"><text
           transform="matrix(1,0,0,-1,4.39883,36.043)"
           style="font-variant:normal;font-weight:normal;font-size:46.32120132px;font-family:MyriadPro;-inkscape-font-specification:MyriadPro-Regular;writing-mode:lr-tb;fill:#2ba543;fill-opacity:1;fill-rule:nonzero;stroke:none"
           id="text24"><tspan
             x="0"
             y="0"
             id="tspan22">C</tspan></text>
</g><g
         id="g26"
         transform="scale(10)"><text
           transform="matrix(1,0,0,-1,31.2645,36.043)"
           style="font-variant:normal;font-weight:normal;font-size:46.32120132px;font-family:MyriadPro;-inkscape-font-specification:MyriadPro-Regular;writing-mode:lr-tb;fill:#bdbcbc;fill-opacity:1;fill-rule:nonzero;stroke:none"
           id="text30"><tspan
             x="0 20.195303 50.164509"
             y="0"
             id="tspan28">LUB</tspan></text>
</g><g
         id="g32"
         transform="scale(10)" /><g
         id="g34"
         transform="scale(10)"><text
           transform="matrix(1,0,0,-1,116.355,36.043)"
           style="font-variant:normal;font-weight:normal;font-size:46.32120132px;font-family:MyriadPro;-inkscape-font-specification:MyriadPro-Regular;writing-mode:lr-tb;fill:#bf1b2c;fill-opacity:1;fill-rule:nonzero;stroke:none"
           id="text38"><tspan
             x="0"
             y="0"
             id="tspan36">I</tspan></text>
</g><g
         id="g40"
         transform="scale(10)"><text
           transform="matrix(1,0,0,-1,127.426,36.043)"
           style="font-variant:normal;font-weight:normal;font-size:46.32120132px;font-family:MyriadPro;-inkscape-font-specification:MyriadPro-Regular;writing-mode:lr-tb;fill:#bdbcbc;fill-opacity:1;fill-rule:nonzero;stroke:none"
           id="text44"><tspan
             x="0 30.479349 53.038445 84.953751 109.87456 146.65286 171.43416 194.4558 205.52655 237.44186 267.41168"
             y="0"
             id="tspan42">NFORMATIQUE</tspan></text>
</g></g></g></svg>