<?xml version="1.0" encoding="utf-8"?>
<!-- Generator: Adobe Illustrator 18.0.0, SVG Export Plug-In . SVG Version: 6.00 Build 0)  -->
<!DOCTYPE svg PUBLIC "-//W3C//DTD SVG 1.1//EN" "http://www.w3.org/Graphics/SVG/1.1/DTD/svg11.dtd">
<svg version="1.1" id="Layer_1" xmlns="http://www.w3.org/2000/svg" xmlns:xlink="http://www.w3.org/1999/xlink" x="0px" y="0px"
	 viewBox="0 0 841.9 595.3" enable-background="new 0 0 841.9 595.3" xml:space="preserve">
<rect x="226.5" y="80.3" stroke="#000000" stroke-miterlimit="10" width="432.5" height="432.5"/>
<polygon fill="#00A14B" points="444.1,99.7 459.4,126 386,252.4 524.1,252.4 508.3,279.5 371.1,279.5 439.7,396.8 424.3,423.1 
	355.1,307 283.4,430.5 254.2,430.5 "/>
<polygon fill="#BE1E2D" points="533.6,253.8 548.1,278.9 458.8,432.8 429,432.8 "/>
<polygon fill="#BCBEC0" points="248.7,438.3 640.7,438.3 652.9,459.2 234.3,462 "/>
<rect x="238.7" y="468.6" fill="none" width="421.9" height="68.9"/>
<text transform="matrix(1 0 0 1 238.7224 501.4834)"><tspan x="0" y="0" fill="#00A14B" font-family="'MyriadPro-Regular'" font-size="46.3212">C</tspan><tspan x="26.9" y="0" fill="#BCBEC0" font-family="'MyriadPro-Regular'" font-size="46.3212">LUB</tspan><tspan x="103.8" y="0" font-family="'MyriadPro-Regular'" font-size="46.3212"> </tspan><tspan x="113.6" y="0" fill="#BE1E2D" font-family="'MyriadPro-Regular'" font-size="46.3212">I</tspan><tspan x="124.7" y="0" fill="#BCBEC0" font-family="'MyriadPro-Regular'" font-size="46.3212">NFORMATIQUE</tspan></text>
<path fill="none" d="M652.9,459.2"/>
<path fill="none" d="M444.1,99.7"/>
<path fill="none" d="M424,423.7"/>
<path fill="none" d="M528.6,244.7"/>
</svg>
