<?xml version="1.0" encoding="utf-8"?>
<!-- Generator: Adobe Illustrator 18.0.0, SVG Export Plug-In . SVG Version: 6.00 Build 0)  -->
<!DOCTYPE svg PUBLIC "-//W3C//DTD SVG 1.1//EN" "http://www.w3.org/Graphics/SVG/1.1/DTD/svg11.dtd">
<svg version="1.1" id="Layer_1" xmlns="http://www.w3.org/2000/svg" xmlns:xlink="http://www.w3.org/1999/xlink" x="0px" y="0px"
	 viewBox="0 0 841.9 595.3" enable-background="new 0 0 841.9 595.3" xml:space="preserve">
<polygon fill="#00A14B" points="446.1,67.5 461.3,93.6 388.3,219.3 525.6,219.3 509.9,246.2 373.5,246.2 441.8,362.8 426.4,389 
	357.6,273.6 286.4,396.3 257.3,396.3 "/>
<polygon fill="#BE1E2D" points="535.1,220.7 549.5,245.6 460.7,398.5 431.1,398.5 "/>
<polygon fill="#58595B" points="251.8,404 641.5,404 653.6,424.8 237.6,427.6 "/>
<rect x="242" y="434.2" fill="none" width="419.3" height="68.5"/>
<text transform="matrix(1 0 0 1 241.9688 466.8412)"><tspan x="0" y="0" fill="#00A14B" font-family="'MyriadPro-Regular'" font-size="46.0413">C</tspan><tspan x="26.7" y="0" fill="#58595B" font-family="'MyriadPro-Regular'" font-size="46.0413">LUB</tspan><tspan x="103.2" y="0" font-family="'MyriadPro-Regular'" font-size="46.0413"> </tspan><tspan x="112.9" y="0" fill="#BE1E2D" font-family="'MyriadPro-Regular'" font-size="46.0413">I</tspan><tspan x="123.9" y="0" fill="#58595B" font-family="'MyriadPro-Regular'" font-size="46.0413">NFORMATIQUE</tspan></text>
<path fill="none" d="M653.6,424.8"/>
<path fill="none" d="M273.8,15.8"/>
<path fill="none" d="M426.1,389.5"/>
<path fill="none" d="M530.1,211.6"/>
</svg>
